<?xml version="1.0" encoding="UTF-8" standalone="no"?>
<!-- Created with Inkscape (http://www.inkscape.org/) -->

<svg
   width="210mm"
   height="210mm"
   viewBox="0 0 210 210"
   version="1.1"
   id="svg1"
   xmlns="http://www.w3.org/2000/svg"
   xmlns:svg="http://www.w3.org/2000/svg">
  <defs
     id="defs1" />
  <g
     id="layer2"
     style="display:inline"
     transform="translate(-21.162958,-37.202046)">
    <path
       id="path2"
       style="display:inline;fill:none;stroke:#a55e6f;stroke-width:11.6021;stroke-linecap:butt;stroke-linejoin:miter;stroke-dasharray:none;stroke-opacity:1"
       transform="matrix(0.67502488,0,0,0.54142777,48.315967,30.901023)"
       d="M 110.29224,43.947287 C 91.699665,57.711876 76.672077,76.250362 67.052761,97.288815 c -3.585493,7.841845 -6.432653,16.027005 -8.381595,24.426525 -4.508442,19.43042 -4.095439,40.09316 2.003287,59.08455 6.098726,18.99139 17.97474,36.21521 34.067565,48.00029 5.947422,4.35541 12.438562,7.96758 19.274722,10.72592 M 103.59753,44.175957 c 19.48845,12.463863 35.74597,29.933749 46.7784,50.266805 4.11222,7.578918 7.51125,15.550718 10.02878,23.797688 5.82375,19.0775 6.82161,39.72027 2.03296,59.08353 -4.78865,19.36327 -15.46174,37.35729 -30.71291,50.21299 -5.63638,4.75108 -11.86592,8.79774 -18.49793,12.01611" />
    <path
       style="display:inline;fill:none;stroke:#a55e6f;stroke-width:11.6021;stroke-linecap:butt;stroke-linejoin:miter;stroke-dasharray:none;stroke-opacity:1"
       d="M 107.66044,43.105953 C 90.3562,57.882528 76.378636,76.532804 67.052761,97.288815 c -3.533386,7.864035 -6.409776,16.033685 -8.381595,24.426525 -4.563456,19.42387 -4.155473,40.10165 1.955704,59.09548 6.111177,18.99383 18.012751,36.20696 34.115148,47.98936 5.949032,4.35301 12.439762,7.96494 19.274722,10.72592 M 100.53375,43.452097 c 18.65481,13.030041 34.37401,30.237942 45.66748,49.992468 4.27887,7.484595 7.93346,15.337035 10.70936,23.499275 6.42437,18.8902 8.02223,39.51018 3.78054,59.00685 -4.24169,19.49667 -14.41909,37.78218 -29.30384,51.06963 -5.49918,4.90905 -11.60931,9.133 -18.14453,12.54337"
       id="path3"
       transform="matrix(0.46891169,-0.49088679,0.38525399,0.37610734,-20.365371,125.33793)" />
    <path
       style="display:inline;fill:none;stroke:#a55e6f;stroke-width:11.6021;stroke-linecap:butt;stroke-linejoin:miter;stroke-dasharray:none;stroke-opacity:1"
       d="M 110.2649,43.719594 C 91.690325,57.592658 76.681154,76.199225 67.052761,97.288815 c -3.581045,7.843755 -6.430698,16.027575 -8.381595,24.426525 -4.513142,19.42987 -4.100567,40.09389 1.999222,59.08549 6.09979,18.99159 17.977988,36.2145 34.07163,47.99935 5.947562,4.35521 12.438672,7.96735 19.274722,10.72592 M 103.60926,43.94693 c 19.4779,12.573312 35.72169,30.112377 46.76667,50.49583 4.10791,7.58113 7.50933,15.55143 10.02878,23.79769 5.8284,19.07663 6.82678,39.72064 2.03708,59.08419 -4.7897,19.36354 -15.46503,37.35681 -30.71703,50.21233 -5.63653,4.75088 -11.86604,8.79752 -18.49793,12.01611"
       id="path7"
       transform="matrix(-0.46891169,-0.49088679,-0.38525399,0.37610734,269.80225,126.46583)" />
    <path
       style="fill:none;stroke:#a55e6f;stroke-width:6.98937;stroke-linecap:round;stroke-linejoin:miter;stroke-dasharray:none;stroke-opacity:1"
       d="m 9.2765469,161.30884 c 5.0136761,-3.87459 11.0082971,-6.46927 17.2646851,-7.47277 7.819892,-1.25427 15.886178,-0.0327 23.400345,2.46954 7.514168,2.50224 14.546792,6.25064 21.436296,10.15687 12.944309,7.3392 25.776484,15.40398 40.198367,19.06845 11.94784,3.03583 24.69111,2.87995 36.56111,-0.44725 11.87,-3.32719 22.8377,-9.81756 31.4669,-18.6212"
       id="path11"
       transform="matrix(0.91439715,0,0,1.1013367,32.435308,2.7515551)" />
    <path
       style="fill:none;stroke:#a55e6f;stroke-width:7.1292;stroke-linecap:round;stroke-linejoin:miter;stroke-dasharray:none;stroke-opacity:1"
       d="m 15.460911,180.11962 c 6.769798,-1.85882 13.925214,-2.30051 20.87223,-1.28841 9.513715,1.38604 18.583388,5.50952 26.025869,11.59568 5.524598,4.51779 10.199333,10.10497 16.233955,13.91482 6.823301,4.30777 15.20908,6.0781 23.191365,4.89595"
       id="path13"
       transform="matrix(0.87689883,0,0,1.1038266,39.325888,1.2572646)" />
  </g>
</svg>
